HIERARCHY
ROOT Hips
{
	OFFSET 0.000000 0.000000 0.000000
	CHANNELS 6 Xposition Yposition Zposition Zrotation Yrotation Xrotation 
	JOINT LHipJoint
	{
		OFFSET 0.000000 0.000000 0.000000
		CHANNELS 3 Zrotation Yrotation Xrotation
		JOINT LeftUpLeg
		{
			OFFSET 1.363060 -1.794630 0.839290
			CHANNELS 3 Zrotation Yrotation Xrotation
			JOINT LeftLeg
			{
				OFFSET 2.448110 -6.726130 0.000000
				CHANNELS 3 Zrotation Yrotation Xrotation
				JOINT LeftFoot
				{
					OFFSET 2.562200 -7.039590 0.000000
					CHANNELS 3 Zrotation Yrotation Xrotation
					JOINT LeftToeBase
					{
						OFFSET 0.157640 -0.433110 2.322550
						CHANNELS 3 Zrotation Yrotation Xrotation
						End Site
						{
							OFFSET 0.000000 0.000000 0.000000
						}
					}
				}
			}
		}
	}
	JOINT RHipJoint
	{
		OFFSET 0.000000 0.000000 0.000000
		CHANNELS 3 Zrotation Yrotation Xrotation
		JOINT RightUpLeg
		{
			OFFSET -1.305520 -1.794630 0.839290
			CHANNELS 3 Zrotation Yrotation Xrotation
			JOINT RightLeg
			{
				OFFSET -2.542530 -6.985550 0.000000
				CHANNELS 3 Zrotation Yrotation Xrotation
				JOINT RightFoot
				{
					OFFSET -2.568260 -7.056230 0.000000
					CHANNELS 3 Zrotation Yrotation Xrotation
					JOINT RightToeBase
					{
						OFFSET -0.164730 -0.452590 2.363150
						CHANNELS 3 Zrotation Yrotation Xrotation
						End Site
						{
							OFFSET 0.000000 0.000000 0.000000
						}
					}
				}
			}
		}
	}
	JOINT LowerBack
	{
		OFFSET 0.000000 0.000000 0.000000
		CHANNELS 3 Zrotation Yrotation Xrotation
		JOINT Spine
		{
			OFFSET 0.028270 2.035590 -0.193380
			CHANNELS 3 Zrotation Yrotation Xrotation
			JOINT Spine1
			{
				OFFSET 0.056720 2.048850 -0.042750
				CHANNELS 3 Zrotation Yrotation Xrotation
				JOINT Neck
				{
					OFFSET 0.000000 0.000000 0.000000
					CHANNELS 3 Zrotation Yrotation Xrotation
					JOINT Neck1
					{
						OFFSET -0.054170 1.746240 0.172020
						CHANNELS 3 Zrotation Yrotation Xrotation
						JOINT Head
						{
							OFFSET 0.104070 1.761360 -0.123970
							CHANNELS 3 Zrotation Yrotation Xrotation
							End Site
							{
								OFFSET 0.000000 0.000000 0.000000
							}
						}
					}
				}
				JOINT LeftShoulder
				{
					OFFSET 0.000000 0.000000 0.000000
					CHANNELS 3 Zrotation Yrotation Xrotation
					JOINT LeftArm
					{
						OFFSET 3.362410 1.200890 -0.311210
						CHANNELS 3 Zrotation Yrotation Xrotation
						JOINT LeftForeArm
						{
							OFFSET 4.983000 -0.000000 -0.000000
							CHANNELS 3 Zrotation Yrotation Xrotation
							JOINT LeftHand
							{
								OFFSET 3.483560 -0.000000 -0.000000
								CHANNELS 3 Zrotation Yrotation Xrotation
								JOINT LeftFingerBase
								{
									OFFSET 0.000000 0.000000 0.000000
									CHANNELS 3 Zrotation Yrotation Xrotation
									JOINT LeftHandIndex1
									{
										OFFSET 0.715260 -0.000000 -0.000000
										CHANNELS 3 Zrotation Yrotation Xrotation
										End Site
										{
											OFFSET 0.000000 0.000000 0.000000
										}
									}
								}
								JOINT LThumb
								{
									OFFSET 0.000000 0.000000 0.000000
									CHANNELS 3 Zrotation Yrotation Xrotation
									End Site
									{
										OFFSET 0.000000 0.000000 0.000000
									}
								}
							}
						}
					}
				}
				JOINT RightShoulder
				{
					OFFSET 0.000000 0.000000 0.000000
					CHANNELS 3 Zrotation Yrotation Xrotation
					JOINT RightArm
					{
						OFFSET -3.136600 1.374050 -0.404650
						CHANNELS 3 Zrotation Yrotation Xrotation
						JOINT RightForeArm
						{
							OFFSET -5.241900 -0.000000 -0.000000
							CHANNELS 3 Zrotation Yrotation Xrotation
							JOINT RightHand
							{
								OFFSET -3.444170 -0.000000 -0.000000
								CHANNELS 3 Zrotation Yrotation Xrotation
								JOINT RightFingerBase
								{
									OFFSET 0.000000 0.000000 0.000000
									CHANNELS 3 Zrotation Yrotation Xrotation
									JOINT RightHandIndex1
									{
										OFFSET -0.622530 -0.000000 -0.000000
										CHANNELS 3 Zrotation Yrotation Xrotation
										End Site
										{
											OFFSET 0.000000 0.000000 0.000000
										}
									}
								}
								JOINT RThumb
								{
									OFFSET 0.000000 0.000000 0.000000
									CHANNELS 3 Zrotation Yrotation Xrotation
									End Site
									{
										OFFSET 0.000000 0.000000 0.000000
									}
								}
							}
						}
					}
				}
			}
		}
	}
}
MOTION
Frames: 8
Frame Time: 0.008333
3.779797 17.198189 1.264688 -179.874117 -71.133180 -171.986577 -11.744545 1.898450 -2.115993 -4.943559 29.272784 -12.711993 -3.035570 -0.916610 1.121106 0.817066 6.686573 -0.611239 0.784900 0.000001 -34.009400 9.450718 -1.667084 3.568082 0.377532 2.729056 -10.297874 2.615200 1.372518 -4.032625 0.701878 3.790640 4.749379 0.285200 0.000000 -43.753100 0.779181 -0.764342 -2.826772 -0.440332 -0.872630 -3.651895 -6.478459 -0.641769 -2.324911 7.987674 -6.096424 1.355838 -4.315379 -0.409623 2.433147 0.000000 0.000000 0.000000 12.313925 3.908421 -2.617734 -85.278331 -18.364645 17.770753 -179.636828 -51.092486 179.900537 6.509965 -5.153326 -0.356693 -0.129239 1.084731 -0.000000 0.000000 0.000000 0.000000 0.000000 0.000000 0.000000 2.414582 -3.781178 -3.835001 90.862730 26.736513 35.088021 -179.031019 57.920533 179.848623 -11.127834 10.942955 -1.194531 0.221013 -1.058199 -0.000000 0.000000 0.000000 0.000000 0.000000 0.000000 0.000000 
3.776293 17.199204 1.266216 -179.775011 -70.865511 -172.040858 -11.750643 1.898762 -2.130994 -4.934354 29.359743 -12.744247 -3.032364 -0.913688 1.162163 0.838617 6.848107 -0.657084 0.796700 0.000000 -33.962401 9.436261 -1.670839 3.617957 0.376794 2.930590 -10.284354 2.626714 1.389699 -4.244550 0.724611 3.874265 4.930708 0.303900 0.000000 -43.668200 0.874622 -0.763644 -2.853027 -0.432818 -0.881847 -3.648178 -6.491477 -0.649317 -2.285626 7.940074 -6.131373 1.311678 -4.301417 -0.408477 2.421715 0.000000 0.000000 0.000000 12.439598 4.029036 -2.651858 -84.858721 -18.869711 17.273612 -179.613231 -51.164850 179.900657 6.522533 -4.968531 -0.346380 -0.130735 1.077210 -0.000000 0.000000 0.000000 0.000000 0.000000 0.000000 0.000000 2.364858 -3.816246 -3.828320 90.933781 26.839230 35.418547 -179.032257 57.980500 179.848607 -11.148374 10.928320 -1.195352 0.222488 -1.057267 -0.000000 0.000000 0.000000 0.000000 0.000000 0.000000 0.000000 
3.773084 17.200693 1.267584 -179.701728 -70.605503 -172.075543 -11.758936 1.904217 -2.136280 -4.935865 29.456483 -12.782842 -3.031491 -0.913049 1.190000 0.856779 6.989158 -0.682719 0.808800 0.000000 -33.918799 9.420709 -1.681527 3.678224 0.371047 3.123142 -10.275388 2.638607 1.408260 -4.466768 0.749139 3.961759 5.123571 0.323500 -0.000001 -43.585099 0.988042 -0.753646 -2.904562 -0.432666 -0.885020 -3.645879 -6.546778 -0.648617 -2.236517 7.892205 -6.168611 1.297618 -4.285961 -0.407514 2.418542 0.000000 0.000000 0.000000 12.538375 4.146547 -2.710298 -84.152507 -19.786614 16.649925 -179.539798 -51.381936 179.901367 6.494813 -4.789224 -0.334394 -0.133342 1.071502 -0.000000 0.000000 0.000000 0.000000 0.000000 0.000000 0.000000 2.339719 -3.875100 -3.814652 91.010514 26.945992 35.785767 -179.024846 58.051478 179.848574 -11.161118 10.910964 -1.194889 0.222863 -1.055829 -0.000000 0.000000 0.000000 0.000000 0.000000 0.000000 0.000000 
3.770453 17.202590 1.268515 -179.659973 -70.364506 -172.091426 -11.769643 1.914890 -2.130048 -4.946658 29.559570 -12.823535 -3.032532 -0.915189 1.202180 0.870784 7.106078 -0.683858 0.821600 -0.000000 -33.881600 9.404024 -1.700917 3.749338 0.360620 3.303286 -10.268208 2.650100 1.427471 -4.692734 0.774237 4.046410 5.319722 0.342300 -0.000000 -43.503200 1.119282 -0.729047 -2.984485 -0.444066 -0.877402 -3.645574 -6.665377 -0.634139 -2.180435 7.861927 -6.203091 1.326809 -4.265432 -0.406599 2.427258 0.000000 0.000000 0.000000 12.579421 4.252471 -2.794722 -83.076277 -21.246498 15.879096 -179.409625 -51.865267 179.902995 6.406815 -4.607502 -0.319446 -0.136373 1.066904 -0.000000 0.000000 0.000000 0.000000 0.000000 0.000000 0.000000 2.357659 -3.950518 -3.791726 91.086574 27.039581 36.164670 -179.003268 58.125175 179.848477 -11.162974 10.890823 -1.192750 0.221525 -1.053732 -0.000000 0.000000 0.000000 0.000000 0.000000 0.000000 0.000000 
3.768631 17.204777 1.268841 -179.646985 -70.154374 -172.094086 -11.782649 1.930601 -2.109690 -4.964914 29.664331 -12.868219 -3.035199 -0.920281 1.202357 0.879989 7.194126 -0.661459 0.834500 0.000000 -33.856300 9.384766 -1.726677 3.828344 0.351242 3.470027 -10.344951 2.658817 1.434305 -4.736958 0.792881 4.124770 5.410676 0.358701 -0.000000 -43.417300 1.265171 -0.690975 -3.094150 -0.469755 -0.860287 -3.650043 -6.860168 -0.607347 -2.130715 7.869145 -6.228709 1.414980 -4.235618 -0.405620 2.452490 0.000000 0.000000 0.000000 12.546542 4.292056 -2.896527 -81.547642 -23.312855 14.901012 -179.245193 -52.729551 179.905492 6.261347 -4.420472 -0.301745 -0.138413 1.062100 -0.000000 0.000000 0.000000 0.000000 0.000000 0.000000 0.000000 2.436728 -4.027700 -3.754729 91.147845 27.106345 36.531146 -178.964217 58.199125 179.848260 -11.155415 10.865714 -1.188839 0.218196 -1.050755 -0.000000 0.000000 0.000000 0.000000 0.000000 0.000000 0.000000 
3.767881 17.207280 1.268328 -179.659311 -69.986660 -172.090683 -11.797426 1.950552 -2.076222 -4.986076 29.766286 -12.913360 -3.038929 -0.927347 1.191686 0.883852 7.248728 -0.613170 0.847400 0.000000 -33.843500 9.362774 -1.756151 3.911036 0.346812 3.625457 -10.533136 2.662637 1.422806 -4.519849 0.799744 4.181920 5.348174 0.368900 -0.000000 -43.328800 1.419423 -0.644038 -3.227856 -0.513104 -0.838152 -3.655549 -7.148086 -0.572256 -2.077350 7.945453 -6.248390 1.548823 -4.189377 -0.403945 2.490608 0.000000 0.000000 0.000000 12.381821 4.294003 -2.993534 -79.468373 -26.112837 13.709444 -179.070530 -54.156418 179.908624 6.080627 -4.206929 -0.281288 -0.139349 1.054793 -0.000000 0.000000 0.000000 0.000000 0.000000 0.000000 0.000000 2.601177 -4.092416 -3.710509 91.187543 27.141414 36.862126 -178.908055 58.257677 179.847985 -11.136489 10.835069 -1.182963 0.212940 -1.046764 -0.000000 0.000000 0.000000 0.000000 0.000000 0.000000 0.000000 
3.768465 17.209765 1.267057 -179.676789 -69.868636 -172.091196 -11.812376 1.974399 -2.029091 -5.009576 29.854138 -12.975849 -3.043826 -0.934278 1.181157 0.882940 7.266882 -0.549937 0.858500 0.000000 -33.847200 9.340222 -1.789363 3.995581 0.353023 3.750960 -10.719928 2.665893 1.412896 -4.293847 0.802561 4.207606 5.267154 0.370700 -0.000000 -43.231700 1.566507 -0.602234 -3.383631 -0.571687 -0.823505 -3.669142 -7.506396 -0.544518 -2.052857 8.106316 -6.252252 1.735307 -4.122304 -0.401472 2.544327 0.000000 0.000000 0.000000 12.125116 4.125792 -3.052681 -76.793613 -29.487351 12.169524 -178.979065 -56.234439 179.911365 5.916935 -3.990046 -0.261767 -0.135236 1.043606 -0.000000 0.000000 0.000000 0.000000 0.000000 0.000000 0.000000 2.849211 -4.116324 -3.654475 91.182297 27.133402 37.138263 -178.836294 58.301800 179.847593 -11.116454 10.800261 -1.176317 0.206286 -1.041706 -0.000000 0.000000 0.000000 0.000000 0.000000 0.000000 0.000000 
3.770467 17.212336 1.264945 -179.685320 -69.811373 -172.102293 -11.825621 2.000320 -1.971849 -5.031455 29.913724 -13.055402 -3.048875 -0.939192 1.170432 0.877790 7.248986 -0.471435 0.867700 0.000000 -33.866300 9.318628 -1.820894 4.073762 0.374753 3.844536 -10.897799 2.667771 1.404854 -4.062351 0.798823 4.182050 5.167759 0.359801 0.000000 -43.129100 1.687800 -0.579834 -3.547179 -0.643798 -0.828416 -3.685743 -7.916161 -0.537729 -2.045253 8.373146 -6.248740 1.934168 -4.028858 -0.397471 2.602583 0.000000 0.000000 0.000000 11.752466 3.832060 -3.039807 -73.464162 -33.419685 10.259506 -179.026710 -59.155808 179.912516 5.845248 -3.756713 -0.245364 -0.125259 1.027053 -0.000000 0.000000 0.000000 0.000000 0.000000 0.000000 0.000000 3.184926 -4.097815 -3.602053 91.124511 27.091223 37.352690 -178.756078 58.316307 179.847278 -11.095802 10.761616 -1.169098 0.199064 -1.035372 -0.000000 0.000000 0.000000 0.000000 0.000000 0.000000 0.000000 
